# xmcd CD database file
#
# Track frame offsets:
#	150
#	14305
#	31010
#	46975
#	59435
#	80205
#	91642
#	104722
#	119192
#	129367
#	142040
#	153037
#	168610
#	176630
#	192652
#	206950
#
# Disc length: 2937 seconds
#
# Revision: 2
# Processed by: cddbd v1.4PL0 Copyright (c) Steve Scherf et al.
# Submitted via: CDex 1.40Release
#
DISCID=e80b7710
DTITLE=Nat King Cole - Standards
DYEAR=1900
DGENRE=Jazz
TTITLE0=It's Only A Paper Moon
TTITLE1=Route 66
TTITLE2=Fly Me To The Moon
TTITLE3=Caravan
TTITLE4=Sweet Lorraine
TTITLE5=Lover Come Back To Me
TTITLE6=Smile
TTITLE7=Don't Get Around Much Anymore
TTITLE8=Just One Of Those Things
TTITLE9=Love Is Here To Stay
TTITLE10=St. Louis Blues
TTITLE11=But Beautiful
TTITLE12=Avalon
TTITLE13=When I Grow Too Old To Dream
TTITLE14=On The Street Where You Live
TTITLE15=September Song
EXTD=ID3G: 8
EXTT0=
EXTT1=
EXTT2=
EXTT3=
EXTT4=
EXTT5=
EXTT6=
EXTT7=
EXTT8=
EXTT9=
EXTT10=
EXTT11=
EXTT12=
EXTT13=
EXTT14=
EXTT15=
PLAYORDER=
